<mxfile host="app.diagrams.net" modified="2023-09-20T20:21:21.330Z" agent="Mozilla/5.0 (Windows NT 10.0; Win64; x64) AppleWebKit/537.36 (KHTML, like Gecko) Chrome/116.0.0.0 Safari/537.36" etag="E_QdOPfXh1LM_4w-6Ea3" version="21.8.0" type="github">
  <diagram name="PÃ¡gina-1" id="-4h3E4qFFp9H8tqJTO7Z">
    <mxGraphModel dx="1290" dy="566" grid="1" gridSize="10" guides="1" tooltips="1" connect="1" arrows="1" fold="1" page="1" pageScale="1" pageWidth="827" pageHeight="1169" math="0" shadow="0">
      <root>
        <mxCell id="0" />
        <mxCell id="1" parent="0" />
        <mxCell id="4GHwxtf0pryioviuTK-q-6" value="" style="edgeStyle=orthogonalEdgeStyle;rounded=0;orthogonalLoop=1;jettySize=auto;html=1;" edge="1" parent="1" source="4GHwxtf0pryioviuTK-q-2" target="4GHwxtf0pryioviuTK-q-5">
          <mxGeometry relative="1" as="geometry" />
        </mxCell>
        <mxCell id="4GHwxtf0pryioviuTK-q-2" value="alumno" style="shape=umlActor;verticalLabelPosition=bottom;verticalAlign=top;html=1;outlineConnect=0;" vertex="1" parent="1">
          <mxGeometry x="80" y="100" width="30" height="60" as="geometry" />
        </mxCell>
        <mxCell id="4GHwxtf0pryioviuTK-q-5" value="&lt;br&gt;&lt;br&gt;Registrarse" style="ellipse;whiteSpace=wrap;html=1;verticalAlign=top;" vertex="1" parent="1">
          <mxGeometry x="185" y="90" width="115" height="80" as="geometry" />
        </mxCell>
      </root>
    </mxGraphModel>
  </diagram>
</mxfile>
